<svg width="1920" height="1080" viewBox="0 0 1920 1080" fill="none" xmlns="http://www.w3.org/2000/svg">
<g clip-path="url(#clip0_7_4)">
<rect width="1920" height="1080" rx="100" fill="#FAFAFA"/>
<path fill-rule="evenodd" clip-rule="evenodd" d="M636.441 435.828C614.01 440.531 595.526 450.141 580.879 464.714C569.302 476.232 559.749 490.679 562.194 492.97C564.081 494.741 604.334 511.802 604.922 511.081C605.165 510.781 608.627 504.164 612.614 496.377C624.262 473.619 644.922 448.281 660.426 437.736C664.479 434.977 664.315 434.924 652.155 435.027C645.332 435.086 638.26 435.445 636.441 435.828ZM671.217 445.876C655.434 454.139 633.637 480.461 620.054 507.658L615.669 516.443L623.573 519.884C658.135 534.937 659.457 535.373 670.481 535.356C679.317 535.343 682.803 534.489 689.034 530.813C704.104 521.92 710.052 508.674 710.052 484.018C710.052 447.785 695.28 433.277 671.217 445.876ZM721.15 464.226C723.263 471.928 722.202 501.364 719.344 514.391C717.872 521.093 716.676 529.713 716.686 533.546C716.707 543.147 723.144 556.199 731.34 563.263C738.379 569.329 750.823 575.296 752.099 573.217C752.494 572.574 754.085 565.745 755.635 558.039C761.706 527.871 753.166 496.24 731.879 470.056C728.675 466.115 724.664 462.141 722.963 461.223C720.178 459.724 719.997 460.022 721.15 464.226ZM553.125 510.84C549.514 522.003 548.904 549.053 551.969 562.17C555.813 578.629 564.948 596.225 575.834 608.142L585.161 618.353L585.306 595.258C585.425 576.428 586.189 569.396 589.442 557.173C592.902 544.174 593.943 542.109 597.274 541.634C605.441 540.468 605.717 541.644 601.373 559.125C596.067 580.481 595.367 606.463 599.759 619.169C603.83 630.952 610.306 636.304 620.44 636.255C631.139 636.205 639.845 631.763 652.375 619.958C667.498 605.714 672.82 595.422 672.778 580.492C672.742 567.235 670.297 561.347 661.093 552.348C656.552 547.907 643.967 541.741 607.749 526.209C581.678 515.029 559.185 505.566 557.764 505.181C555.967 504.693 554.555 506.416 553.125 510.84ZM707.154 581.035C696.279 584.93 693.876 587.108 680.927 604.814C670.658 618.852 648.812 641.289 645.41 641.289C644.463 641.289 644.207 642.132 644.841 643.164C646.131 645.266 665.963 643.999 678.623 641.004C691.911 637.861 712.057 627.013 722.76 617.238C731.506 609.253 746.458 589.873 746.438 586.549C746.426 584.508 730.986 579.117 723.451 578.522C718.801 578.156 712.462 579.133 707.154 581.035Z" fill="black"/>
<path d="M858.826 629.261V452.434H891.203V536.863L876.259 526.153H980.364L965.669 536.863V452.434H998.046V629.261H965.669V543.836L980.364 554.296H876.259L891.203 543.836V629.261H858.826Z" fill="black"/>
<path d="M1071.51 632.25C1057.57 632.25 1046.36 629.095 1037.89 622.786C1029.42 616.311 1025.19 607.345 1025.19 595.888C1025.19 584.432 1028.76 575.466 1035.9 568.991C1043.04 562.515 1053.91 557.866 1068.52 555.044L1112.61 546.327C1112.61 536.863 1110.45 529.806 1106.13 525.157C1101.81 520.342 1095.42 517.935 1086.95 517.935C1079.32 517.935 1073.26 519.761 1068.77 523.414C1064.46 526.901 1061.47 531.965 1059.81 538.606L1027.43 537.112C1030.09 522.999 1036.56 512.206 1046.86 504.735C1057.15 497.097 1070.52 493.278 1086.95 493.278C1105.88 493.278 1120.16 498.093 1129.79 507.723C1139.59 517.187 1144.49 530.802 1144.49 548.568V596.884C1144.49 600.371 1145.07 602.779 1146.23 604.107C1147.56 605.435 1149.47 606.099 1151.96 606.099H1156.19V629.261C1155.19 629.593 1153.53 629.842 1151.21 630.008C1149.05 630.175 1146.81 630.258 1144.49 630.258C1139.01 630.258 1134.11 629.427 1129.79 627.767C1125.47 625.941 1122.15 622.869 1119.83 618.552C1117.5 614.069 1116.34 608.009 1116.34 600.371L1119.08 602.364C1117.75 608.175 1114.85 613.405 1110.37 618.054C1106.05 622.537 1100.57 626.024 1093.93 628.514C1087.29 631.005 1079.81 632.25 1071.51 632.25ZM1077.99 609.088C1085.13 609.088 1091.27 607.677 1096.42 604.854C1101.57 602.032 1105.55 598.13 1108.37 593.149C1111.2 588.168 1112.61 582.273 1112.61 575.466V567.994L1078.24 574.968C1071.1 576.462 1065.95 578.704 1062.8 581.692C1059.81 584.515 1058.31 588.251 1058.31 592.9C1058.31 598.047 1059.97 602.032 1063.29 604.854C1066.78 607.677 1071.68 609.088 1077.99 609.088Z" fill="black"/>
<path d="M1206.83 629.261C1197.2 629.261 1189.48 626.771 1183.66 621.79C1177.85 616.809 1174.95 608.839 1174.95 597.881V452.434H1206.83V594.643C1206.83 597.964 1207.66 600.454 1209.32 602.115C1211.14 603.775 1213.63 604.605 1216.79 604.605H1226.5V629.261H1206.83Z" fill="black"/>
<path d="M1304.72 632.25C1291.6 632.25 1280.06 629.427 1270.1 623.782C1260.31 617.971 1252.67 609.835 1247.19 599.375C1241.88 588.915 1239.22 576.711 1239.22 562.764C1239.22 548.651 1241.88 536.448 1247.19 526.153C1252.67 515.693 1260.31 507.64 1270.1 501.995C1280.06 496.184 1291.6 493.278 1304.72 493.278C1317.84 493.278 1329.29 496.184 1339.09 501.995C1348.89 507.64 1356.44 515.693 1361.75 526.153C1367.23 536.448 1369.97 548.651 1369.97 562.764C1369.97 576.711 1367.23 588.915 1361.75 599.375C1356.44 609.835 1348.89 617.971 1339.09 623.782C1329.29 629.427 1317.84 632.25 1304.72 632.25ZM1304.72 606.348C1315.01 606.348 1322.9 602.53 1328.38 594.892C1334.03 587.254 1336.85 576.545 1336.85 562.764C1336.85 549.149 1334.03 538.523 1328.38 530.885C1322.9 523.082 1315.01 519.18 1304.72 519.18C1294.43 519.18 1286.46 523.082 1280.81 530.885C1275.17 538.523 1272.34 549.149 1272.34 562.764C1272.34 576.545 1275.17 587.254 1280.81 594.892C1286.46 602.53 1294.43 606.348 1304.72 606.348Z" fill="black"/>
<path fill-rule="evenodd" clip-rule="evenodd" d="M350.493 41.9919C242.415 64.648 153.354 110.955 82.7851 181.171C27.0008 236.668 -19.0278 306.273 -7.24768 317.317C1.84647 325.848 195.796 408.053 198.626 404.578C199.798 403.134 216.479 371.248 235.688 333.729C291.815 224.076 391.356 101.991 466.062 51.1811C485.59 37.8908 484.801 37.634 426.211 38.1316C393.333 38.4124 359.26 40.146 350.493 41.9919ZM518.053 90.402C442.008 130.217 336.983 257.045 271.539 388.086L250.409 430.413L288.491 446.993C455.023 519.52 461.392 521.623 514.506 521.543C557.084 521.479 573.877 517.361 603.901 499.649C676.511 456.801 705.172 392.981 705.172 274.179C705.172 99.5993 633.997 29.6967 518.053 90.402ZM758.645 178.82C768.823 215.93 763.714 357.757 749.942 420.525C742.848 452.82 737.085 494.352 737.133 512.819C737.237 559.078 768.249 621.967 807.742 656.003C841.656 685.232 901.617 713.98 907.762 703.964C909.667 700.866 917.334 667.961 924.803 630.835C954.054 485.476 912.903 333.071 810.341 206.909C794.902 187.921 775.574 168.772 767.381 164.349C753.959 157.126 753.09 158.563 758.645 178.82ZM-50.941 403.415C-68.3403 457.202 -71.2813 587.537 -56.5123 650.738C-37.9893 730.039 6.0229 814.821 58.4756 872.243L103.412 921.44L104.114 810.166C104.688 719.437 108.37 685.553 124.04 626.661C140.714 564.03 145.727 554.078 161.779 551.791C201.129 546.173 202.46 551.839 181.53 636.067C155.961 738.963 152.589 864.154 173.751 925.373C193.366 982.145 224.569 1007.93 273.396 1007.7C324.948 1007.46 366.896 986.054 427.271 929.177C500.136 860.542 525.776 810.952 525.577 739.019C525.401 675.144 513.621 646.774 469.274 603.411C447.396 582.015 386.758 552.305 212.247 477.466C86.6348 423.599 -21.7457 378.006 -28.5922 376.152C-37.248 373.8 -44.0547 382.099 -50.941 403.415ZM691.208 741.636C638.811 760.399 627.23 770.897 564.839 856.208C515.359 923.848 410.103 1031.95 393.708 1031.95C389.149 1031.95 387.913 1036.01 390.966 1040.99C397.183 1051.12 492.739 1045.01 553.736 1030.58C617.762 1015.44 714.832 963.165 766.4 916.071C808.539 877.597 880.583 784.219 880.488 768.2C880.432 758.369 806.037 732.39 769.732 729.525C747.327 727.759 716.785 732.47 691.208 741.636Z" fill="black" fill-opacity="0.05"/>
</g>
<defs>
<clipPath id="clip0_7_4">
<rect width="1920" height="1080" rx="100" fill="white"/>
</clipPath>
</defs>
</svg>
